<svg id="Componente_1_1" data-name="Componente 1 – 1" xmlns="http://www.w3.org/2000/svg" width="285.75" height="57" viewBox="0 0 285.75 57">
  <text id="Rolling_Dices" data-name="Rolling Dices" transform="translate(0 46)" fill="#B7B7B7" font-size="43" font-family="SegoeUI, Segoe UI"><tspan x="0" y="0">Rolling Dices</tspan></text>
  <path id="Icon_awesome-dice-d20" data-name="Icon awesome-dice-d20" d="M7.506,15.121.084,26.082a.562.562,0,0,0,.417.854l14.643,1.552L7.506,15.121ZM.521,22.179l5.294-8.6L.426,10.343A.281.281,0,0,0,0,10.584V22.032A.281.281,0,0,0,.521,22.179Zm.762,7.606,13.669,6.164a.562.562,0,0,0,.8-.51V30.82L1.438,29.252a.281.281,0,0,0-.155.532ZM6.994,11.659l5.62-10.05a.562.562,0,0,0-.758-.783L1.252,7.759a.282.282,0,0,0,.009.477l5.733,3.424Zm9.881.716h7.679L17.833.536a1.125,1.125,0,0,0-1.917,0L9.2,12.375Zm16.449-2.032-5.389,3.234,5.294,8.6a.281.281,0,0,0,.521-.148V10.584A.281.281,0,0,0,33.324,10.343Zm-6.568,1.316,5.733-3.424a.281.281,0,0,0,.009-.477L21.894.825a.562.562,0,0,0-.758.783Zm5.556,17.593L18,30.819v4.617a.562.562,0,0,0,.8.51l13.669-6.164A.281.281,0,0,0,32.312,29.252ZM26.244,15.121,18.606,28.488l14.643-1.552a.562.562,0,0,0,.417-.854L26.244,15.121Zm-9.369-.5H9.814l7.061,12.357,7.061-12.357Z" transform="translate(252 13)" fill="#B7B7B7"/>
</svg>
