<svg id="people-24px" xmlns="http://www.w3.org/2000/svg" width="30" height="30" viewBox="0 0 30 30">
  <path id="Caminho_13" data-name="Caminho 13" d="M0,0H30V30H0Z" fill="rgba(0,0,0,0)"/>
  <path id="Caminho_14" data-name="Caminho 14" d="M20.091,13.571A4.057,4.057,0,0,0,23.9,9.286,4.057,4.057,0,0,0,20.091,5a4.067,4.067,0,0,0-3.818,4.286A4.067,4.067,0,0,0,20.091,13.571Zm-10.182,0a4.057,4.057,0,0,0,3.805-4.286A4.057,4.057,0,0,0,9.909,5,4.067,4.067,0,0,0,6.091,9.286,4.067,4.067,0,0,0,9.909,13.571Zm0,2.857C6.944,16.429,1,18.1,1,21.429V25H18.818V21.429C18.818,18.1,12.875,16.429,9.909,16.429Zm10.182,0c-.369,0-.789.029-1.235.071a6.212,6.212,0,0,1,2.507,4.929V25H29V21.429C29,18.1,23.056,16.429,20.091,16.429Z" transform="translate(0 0)"/>
</svg>
