<svg id="share-24px" xmlns="http://www.w3.org/2000/svg" width="30" height="30" viewBox="0 0 30 30">
  <path id="Caminho_34" data-name="Caminho 34" d="M0,0H30V30H0Z" fill="none"/>
  <path id="Caminho_35" data-name="Caminho 35" d="M23,20.321a3.935,3.935,0,0,0-2.613,1l-9.507-5.4a4.163,4.163,0,0,0,.12-.911,4.163,4.163,0,0,0-.12-.911l9.4-5.348A4.036,4.036,0,0,0,23,9.807a3.947,3.947,0,0,0,4-3.9,4,4,0,0,0-8,0,4.163,4.163,0,0,0,.12.911l-9.4,5.348A4.036,4.036,0,0,0,7,11.108a3.9,3.9,0,1,0,0,7.807,4.036,4.036,0,0,0,2.72-1.054l9.493,5.413a3.587,3.587,0,0,0-.107.846A3.894,3.894,0,1,0,23,20.321ZM23,4.6a1.3,1.3,0,1,1-1.333,1.3A1.321,1.321,0,0,1,23,4.6ZM7,16.313a1.3,1.3,0,1,1,1.333-1.3A1.321,1.321,0,0,1,7,16.313Zm16,9.134a1.3,1.3,0,1,1,1.333-1.3A1.321,1.321,0,0,1,23,25.448Z" transform="translate(0 0)"/>
</svg>
