<svg id="Componente_1_1" data-name="Componente 1 – 1" xmlns="http://www.w3.org/2000/svg" width="480.375" height="90" viewBox="0 0 480.375 90">
  <text id="Rolling_Dices" data-name="Rolling Dices" transform="translate(0 73)" fill="#b7b7b7" font-size="68" font-family="SegoeUI, Segoe UI"><tspan x="0" y="0">Rolling Dices</tspan></text>
  <path id="Icon_awesome-dice-d20" data-name="Icon awesome-dice-d20" d="M16.749,33.744.188,58.2a1.254,1.254,0,0,0,.93,1.9L33.8,63.571ZM1.163,49.492l11.813-19.2L.951,23.081A.628.628,0,0,0,0,23.619V49.164A.628.628,0,0,0,1.163,49.492Zm1.7,16.972,30.5,13.754a1.255,1.255,0,0,0,1.781-1.139v-10.3l-31.938-3.5a.628.628,0,0,0-.345,1.188ZM15.607,26.018,28.149,3.59a1.255,1.255,0,0,0-1.691-1.748L2.794,17.314a.629.629,0,0,0,.02,1.064Zm22.05,1.6H54.792L39.8,1.2a2.51,2.51,0,0,0-4.277,0l-15,26.419Zm36.706-4.535L62.338,30.3l11.813,19.2a.628.628,0,0,0,1.163-.329V23.619A.628.628,0,0,0,74.363,23.081ZM59.707,26.018,72.5,18.377a.628.628,0,0,0,.02-1.064L48.857,1.842A1.255,1.255,0,0,0,47.165,3.59Zm12.4,39.259-31.938,3.5v10.3a1.254,1.254,0,0,0,1.781,1.139l30.5-13.754A.627.627,0,0,0,72.105,65.277ZM58.564,33.744,41.52,63.571,74.2,60.108a1.255,1.255,0,0,0,.93-1.9ZM37.657,32.636H21.9L37.657,60.212,53.415,32.636Z" transform="translate(405.06 9.664)" fill="#b7b7b7"/>
</svg>
