<svg id="settings_applications-24px_1_" data-name="settings_applications-24px (1)" xmlns="http://www.w3.org/2000/svg" width="30" height="30" viewBox="0 0 30 30">
  <path id="Caminho_19" data-name="Caminho 19" d="M0,0H30V30H0Z" fill="none"/>
  <path id="Caminho_20" data-name="Caminho 20" d="M7.28,17.627l1.6,2.76a.408.408,0,0,0,.493.173l1.987-.8a5.659,5.659,0,0,0,1.347.787L13,22.667a.414.414,0,0,0,.4.333h3.2a.413.413,0,0,0,.4-.347l.293-2.12a5.933,5.933,0,0,0,1.347-.787l1.987.8a.408.408,0,0,0,.493-.173l1.6-2.76a.411.411,0,0,0-.093-.52l-1.693-1.32A5.027,5.027,0,0,0,20.987,15a7.794,7.794,0,0,0-.053-.787l1.693-1.32a.408.408,0,0,0,.093-.52l-1.6-2.76a.408.408,0,0,0-.493-.173l-1.987.8a5.659,5.659,0,0,0-1.347-.787L17,7.333A.414.414,0,0,0,16.6,7H13.4a.413.413,0,0,0-.4.347l-.293,2.12a5.613,5.613,0,0,0-1.347.773l-1.987-.8a.408.408,0,0,0-.493.173l-1.6,2.76a.411.411,0,0,0,.093.52l1.693,1.32A5.22,5.22,0,0,0,9,15a7.794,7.794,0,0,0,.053.787L7.36,17.107a.408.408,0,0,0-.08.52ZM15,12.72A2.28,2.28,0,1,1,12.72,15,2.288,2.288,0,0,1,15,12.72ZM24.333,3H5.667A2.666,2.666,0,0,0,3,5.667V24.333A2.666,2.666,0,0,0,5.667,27H24.333A2.666,2.666,0,0,0,27,24.333V5.667A2.666,2.666,0,0,0,24.333,3Zm0,21.333H5.667V5.667H24.333Z"/>
</svg>
